<?xml version="1.0" encoding="utf-8"?>
<!-- Generator: Adobe Illustrator 14.0.0, SVG Export Plug-In . SVG Version: 6.00 Build 43363)  -->
<!DOCTYPE svg PUBLIC "-//W3C//DTD SVG 1.1//EN" "http://www.w3.org/Graphics/SVG/1.1/DTD/svg11.dtd">
<svg version="1.1" id="Layer_2_copy" xmlns="http://www.w3.org/2000/svg" xmlns:xlink="http://www.w3.org/1999/xlink" x="0px"
	 y="0px" width="80px" height="80px" viewBox="0 0 80 80" enable-background="new 0 0 80 80" xml:space="preserve">
<g>
	<polygon fill="#FFFFFF" points="31.33,36.798 33.064,38.532 34.798,36.798 36.532,35.063 38.266,36.798 40,38.532 41.734,36.798 
		43.468,35.063 45.201,36.798 46.936,38.532 48.67,36.798 49,36.468 49,29 44,24 31,24 31,36.468 	"/>
	<polygon fill="#FFFFFF" points="48.67,40.265 46.936,42 45.201,40.265 43.468,38.532 41.734,40.265 40,42 38.266,40.265 
		36.532,38.532 34.798,40.265 33.064,42 31.33,40.265 31,39.935 31,51 49,51 49,39.935 	"/>
</g>
</svg>
